name C:/MyDriveSym/Projects/mobilecap/Data\Session20210823_0002\mocap\ForceDataProcessed\walking2_forces.mot
datacolumns 19
datarows 22
range 0.34450000 0.35500000
endheader 
time	R_ground_force_vx	R_ground_force_vy	R_ground_force_vz	R_ground_force_px	R_ground_force_py	R_ground_force_pz	R_ground_torque_x	R_ground_torque_y	R_ground_torque_z	L_ground_force_vx	L_ground_force_vy	L_ground_force_vz	L_ground_force_px	L_ground_force_py	L_ground_force_pz	L_ground_torque_x	L_ground_torque_y	L_ground_torque_z	
          0.34450000	         -5.03606800	        519.75390600	        -16.58899100	          0.41215500	          0.00600000	         -0.12020400	          0.00000000	         -2.76092000	          0.00000000	          0.00000000	          0.00000000	          0.00000000	          0.76902000	          0.00000000	         -0.19766700	          0.00000000	          0.00000000	          0.00000000	
          0.34500000	         -4.90073200	        520.08836300	        -16.62438100	          0.41228500	          0.00600000	         -0.12019500	          0.00000000	         -2.77295700	          0.00000000	          0.00000000	          0.00000000	          0.00000000	          0.76902000	          0.00000000	         -0.19766700	          0.00000000	          0.00000000	          0.00000000	
          0.34550000	         -4.76510400	        520.42668900	        -16.66040800	          0.41241500	          0.00600000	         -0.12018600	          0.00000000	         -2.78495300	          0.00000000	          0.00000000	          0.00000000	          0.00000000	          0.76902000	          0.00000000	         -0.19766700	          0.00000000	          0.00000000	          0.00000000	
          0.34600000	         -4.62918000	        520.76885400	        -16.69707100	          0.41254400	          0.00600000	         -0.12017700	          0.00000000	         -2.79690700	          0.00000000	          0.00000000	          0.00000000	          0.00000000	          0.76902000	          0.00000000	         -0.19766700	          0.00000000	          0.00000000	          0.00000000	
          0.34650000	         -4.49295200	        521.11483100	        -16.73437100	          0.41267300	          0.00600000	         -0.12016800	          0.00000000	         -2.80881900	          0.00000000	          0.00000000	          0.00000000	          0.00000000	          0.76902000	          0.00000000	         -0.19766700	          0.00000000	          0.00000000	          0.00000000	
          0.34700000	         -4.35641500	        521.46458900	        -16.77230600	          0.41280100	          0.00600000	         -0.12015900	          0.00000000	         -2.82068800	          0.00000000	          0.00000000	          0.00000000	          0.00000000	          0.76902000	          0.00000000	         -0.19766700	          0.00000000	          0.00000000	          0.00000000	
          0.34750000	         -4.21956300	        521.81809900	        -16.81087800	          0.41292900	          0.00600000	         -0.12015000	          0.00000000	         -2.83251400	          0.00000000	          0.00000000	          0.00000000	          0.00000000	          0.76902000	          0.00000000	         -0.19766700	          0.00000000	          0.00000000	          0.00000000	
          0.34800000	         -4.08239100	        522.17533200	        -16.85008400	          0.41305700	          0.00600000	         -0.12014100	          0.00000000	         -2.84429500	          0.00000000	          0.00000000	          0.00000000	          0.00000000	          0.76902000	          0.00000000	         -0.19766700	          0.00000000	          0.00000000	          0.00000000	
          0.34850000	         -3.94489200	        522.53625700	        -16.88992600	          0.41318400	          0.00600000	         -0.12013300	          0.00000000	         -2.85603000	          0.00000000	          0.00000000	          0.00000000	          0.00000000	          0.76902000	          0.00000000	         -0.19766700	          0.00000000	          0.00000000	          0.00000000	
          0.34900000	         -3.80706100	        522.90084600	        -16.93040100	          0.41331100	          0.00600000	         -0.12012400	          0.00000000	         -2.86772000	          0.00000000	          0.00000000	          0.00000000	          0.00000000	          0.76902000	          0.00000000	         -0.19766700	          0.00000000	          0.00000000	          0.00000000	
          0.34950000	         -3.66889300	        523.26906600	        -16.97150900	          0.41343700	          0.00600000	         -0.12011500	          0.00000000	         -2.87936400	          0.00000000	          0.00000000	          0.00000000	          0.00000000	          0.76902000	          0.00000000	         -0.19766700	          0.00000000	          0.00000000	          0.00000000	
          0.35000000	         -3.53038100	        523.64088900	        -17.01325000	          0.41356300	          0.00600000	         -0.12010700	          0.00000000	         -2.89096000	          0.00000000	          0.00000000	          0.00000000	          0.00000000	          0.76902000	          0.00000000	         -0.19766700	          0.00000000	          0.00000000	          0.00000000	
          0.35050000	         -3.39152000	        524.01628400	        -17.05562200	          0.41368900	          0.00600000	         -0.12009800	          0.00000000	         -2.90250800	          0.00000000	          0.00000000	          0.00000000	          0.00000000	          0.76902000	          0.00000000	         -0.19766700	          0.00000000	          0.00000000	          0.00000000	
          0.35100000	         -3.25230500	        524.39522000	        -17.09862400	          0.41381400	          0.00600000	         -0.12009000	          0.00000000	         -2.91400800	          0.00000000	          0.00000000	          0.00000000	          0.00000000	          0.76902000	          0.00000000	         -0.19766700	          0.00000000	          0.00000000	          0.00000000	
          0.35150000	         -3.11272900	        524.77766600	        -17.14225500	          0.41393900	          0.00600000	         -0.12008100	          0.00000000	         -2.92545800	          0.00000000	          0.00000000	          0.00000000	          0.00000000	          0.76902000	          0.00000000	         -0.19766700	          0.00000000	          0.00000000	          0.00000000	
          0.35200000	         -2.97278900	        525.16359200	        -17.18651400	          0.41406300	          0.00600000	         -0.12007300	          0.00000000	         -2.93685800	          0.00000000	          0.00000000	          0.00000000	          0.00000000	          0.76902000	          0.00000000	         -0.19766700	          0.00000000	          0.00000000	          0.00000000	
          0.35250000	         -2.83247700	        525.55296500	        -17.23140000	          0.41418700	          0.00600000	         -0.12006500	          0.00000000	         -2.94820700	          0.00000000	          0.00000000	          0.00000000	          0.00000000	          0.76902000	          0.00000000	         -0.19766700	          0.00000000	          0.00000000	          0.00000000	
          0.35300000	         -2.69178900	        525.94575600	        -17.27691100	          0.41431100	          0.00600000	         -0.12005600	          0.00000000	         -2.95950500	          0.00000000	          0.00000000	          0.00000000	          0.00000000	          0.76902000	          0.00000000	         -0.19766700	          0.00000000	          0.00000000	          0.00000000	
          0.35350000	         -2.55072000	        526.34193100	        -17.32304500	          0.41443400	          0.00600000	         -0.12004800	          0.00000000	         -2.97075100	          0.00000000	          0.00000000	          0.00000000	          0.00000000	          0.76902000	          0.00000000	         -0.19766700	          0.00000000	          0.00000000	          0.00000000	
          0.35400000	         -2.40926400	        526.74146000	        -17.36980100	          0.41455700	          0.00600000	         -0.12004000	          0.00000000	         -2.98194400	          0.00000000	          0.00000000	          0.00000000	          0.00000000	          0.76902000	          0.00000000	         -0.19766700	          0.00000000	          0.00000000	          0.00000000	
          0.35450000	         -2.26741500	        527.14431200	        -17.41717700	          0.41468000	          0.00600000	         -0.12003200	          0.00000000	         -2.99308300	          0.00000000	          0.00000000	          0.00000000	          0.00000000	          0.76902000	          0.00000000	         -0.19766700	          0.00000000	          0.00000000	          0.00000000	
          0.35500000	         -2.12517000	        527.55045300	        -17.46517100	          0.41480200	          0.00600000	         -0.12002400	          0.00000000	         -3.00416800	          0.00000000	          0.00000000	          0.00000000	          0.00000000	          0.76902000	          0.00000000	         -0.19766700	          0.00000000	          0.00000000	          0.00000000	
